# xmcd CD database file
#
# Track frame offsets:
#	150
#	11216
#	22897
#	33816
#	45115
#	55342
#	65891
#	77018
#	89131
#	99756
#	110324
#	123516
#	134788
#	147138
#	159726
#	171631
#	182935
#	193105
#	205360
#	217172
#	228010
#	239460
#	253369
#	262939
#	277926
#	291559
#	306010
#
# Disc length: 4256 seconds
#
# Revision: 0
# Processed by: cddbd v1.5.2PL0 Copyright (c) Steve Scherf et al.
# Submitted via: CDex 1.51
#
DISCID=98109e1b
DTITLE=Nappy Brown - Down In The Alley CD 2
DYEAR=2016
DGENRE=Blues
TTITLE0=It Don't Hurt No More
TTITLE1=My Baby
TTITLE2=You're Going To Need Someone
TTITLE3=A Long Time
TTITLE4=Allright Now
TTITLE5=This Is My Confession
TTITLE6=For Those Who Love
TTITLE7=I Cried Like A Baby
TTITLE8=So Deep
TTITLE9=Give Me Your Love
TTITLE10=Too Shy
TTITLE11=Down In The Alley
TTITLE12=My Baby Knows
TTITLE13=Baby-Cry-Cry-Cry-Baby
TTITLE14=What's Come Over You Baby
TTITLE15=Baby I Got News For You
TTITLE16=Apple Of My Eye
TTITLE17=The Hole I'm In
TTITLE18=Nobody Can Say
TTITLE19=Coal Miner
TTITLE20=Hoonie-Boonie
TTITLE21=Any Time Is The Right Time
TTITLE22=Don't Be Angry
TTITLE23=I've Had My Fun
TTITLE24=Didn't You Know
TTITLE25=The Lock On The Door
TTITLE26=So Glad I Don`t Have To Cry No More
EXTD=YEAR: 2016
EXTT0=
EXTT1=
EXTT2=
EXTT3=
EXTT4=
EXTT5=
EXTT6=
EXTT7=
EXTT8=
EXTT9=
EXTT10=
EXTT11=
EXTT12=
EXTT13=
EXTT14=
EXTT15=
EXTT16=
EXTT17=
EXTT18=
EXTT19=
EXTT20=
EXTT21=
EXTT22=
EXTT23=
EXTT24=
EXTT25=
EXTT26=
PLAYORDER=
